<svg width="387" height="193" viewBox="0 0 387 193" fill="none" xmlns="http://www.w3.org/2000/svg">
<path d="M224 172V0" stroke="#C2C2C2" stroke-width="0.5"/>
<path d="M184 172V0" stroke="#C2C2C2" stroke-width="0.5"/>
<path d="M144 172V0" stroke="#C2C2C2" stroke-width="0.5"/>
<path d="M264 172V0" stroke="#C2C2C2" stroke-width="0.5"/>
<path d="M304 172V0" stroke="#C2C2C2" stroke-width="0.5"/>
<path d="M344 172V0" stroke="#C2C2C2" stroke-width="0.5"/>
<path d="M384 172V0" stroke="#C2C2C2" stroke-width="0.5"/>
<rect x="0.168267" y="0.168267" width="384.663" height="19.6635" rx="3.19707" stroke="#D18200" stroke-width="0.336534"/>
<path d="M143.58 190.135C145.502 190.135 146.639 188.436 146.639 185.764C146.639 183.109 145.496 181.41 143.58 181.41C141.67 181.41 140.516 183.115 140.516 185.77C140.516 188.441 141.658 190.135 143.58 190.135ZM143.58 189.432C142.15 189.432 141.324 188.008 141.324 185.764C141.324 183.561 142.168 182.119 143.58 182.119C144.998 182.119 145.836 183.549 145.836 185.77C145.836 188.008 145.01 189.432 143.58 189.432Z" fill="#2E2D36"/>
<path d="M17.0127 15H18.0674L14.1196 4.43115H13.1235L9.16846 15H10.2305L11.4023 11.7627H15.8408L17.0127 15ZM13.5996 5.66895H13.6436L15.5405 10.8984H11.7026L13.5996 5.66895ZM21.5171 15V5.33936H25.0107V4.43115H17.0273V5.33936H20.5137V15H21.5171ZM26.2778 4.43115V15H29.7056C32.877 15 34.7153 13.0591 34.7153 9.71191C34.7153 6.37207 32.8696 4.43115 29.7056 4.43115H26.2778ZM27.2812 5.33936H29.647C32.2471 5.33936 33.6973 6.90674 33.6973 9.71924C33.6973 12.5244 32.2471 14.0918 29.647 14.0918H27.2812V5.33936ZM42.7866 15.1685C45.0132 15.1685 46.5513 13.9014 46.5513 12.1289C46.5513 10.8032 45.5991 9.71191 44.1929 9.41162V9.38965C45.3794 9.04541 46.1411 8.14453 46.1411 7.02393C46.1411 5.42725 44.7422 4.2627 42.7866 4.2627C40.8384 4.2627 39.4248 5.42725 39.4248 7.02393C39.4248 8.15918 40.1865 9.06006 41.3804 9.38965V9.41162C39.9741 9.71191 39.022 10.7959 39.022 12.1289C39.022 13.894 40.5674 15.1685 42.7866 15.1685ZM42.7866 14.2896C41.1533 14.2896 40.04 13.3447 40.04 12.0703C40.04 10.8032 41.168 9.90234 42.7866 9.90234C44.4126 9.90234 45.5332 10.8032 45.5332 12.0703C45.5332 13.3447 44.4199 14.2896 42.7866 14.2896ZM42.7866 9.00879C41.4023 9.00879 40.4209 8.21777 40.4209 7.10449C40.4209 5.96924 41.3804 5.13428 42.7866 5.13428C44.2002 5.13428 45.145 5.96924 45.145 7.10449C45.145 8.21777 44.1636 9.00879 42.7866 9.00879ZM51.6636 15.1685C53.8242 15.1685 55.377 13.6816 55.377 11.5942C55.377 9.55811 53.8975 8.06396 51.8833 8.06396C50.814 8.06396 49.8545 8.51074 49.3418 9.22852H49.3125L49.708 5.32471H54.7397V4.43115H48.8804L48.2798 10.2832H49.2393C49.73 9.44092 50.6528 8.93555 51.7222 8.93555C53.2529 8.93555 54.3735 10.0708 54.3735 11.6162C54.3735 13.1689 53.2529 14.2822 51.6782 14.2822C50.3159 14.2822 49.2393 13.4326 49.1001 12.2461H48.1187C48.2505 13.9526 49.73 15.1685 51.6636 15.1685ZM56.6733 7.39014V7.39746H57.6401V7.39014C57.6548 6.10107 58.6729 5.1416 60.0278 5.1416C61.3242 5.1416 62.3496 6.0498 62.3496 7.20703C62.3496 8.12988 61.9688 8.75977 60.46 10.3491L56.7246 14.2969V15H63.6167V14.1064H58.1235V14.0771L61.0679 11.001C62.8257 9.17725 63.3457 8.30566 63.3457 7.14844C63.3457 5.52979 61.9028 4.2627 60.0571 4.2627C58.1235 4.2627 56.688 5.58838 56.6733 7.39014ZM67.1909 9.96826H68.4653C70.1646 9.96826 71.2046 10.7886 71.2046 12.1362C71.2046 13.3887 70.0913 14.2896 68.5605 14.2896C67.0371 14.2896 65.9751 13.4399 65.8945 12.2607H64.9277C64.9937 13.9526 66.4365 15.1685 68.5679 15.1685C70.626 15.1685 72.2227 13.894 72.2227 12.1069C72.2227 10.6128 71.1826 9.60938 69.564 9.51416V9.48486C70.9116 9.24316 71.7686 8.29102 71.7686 6.96533C71.7686 5.39795 70.3696 4.2627 68.5093 4.2627C66.605 4.2627 65.272 5.40527 65.1475 7.10449H66.1143C66.2241 5.93262 67.1543 5.1416 68.4653 5.1416C69.8936 5.1416 70.7578 5.94727 70.7578 7.08984C70.7578 8.26904 69.8057 9.11865 68.4214 9.11865H67.1909V9.96826ZM77.4155 10.8325C77.4155 13.3447 78.082 15.4907 79.4443 17.2266H80.2866C79.1807 15.8789 78.4043 13.2056 78.4043 10.8325C78.4043 8.45947 79.1807 5.77881 80.2866 4.43115H79.4443C78.082 6.16699 77.4155 8.32031 77.4155 10.8325ZM89.8447 15V4.43115H88.8413V9.1333H82.6597V4.43115H81.6636V15H82.6597V10.0415H88.8413V15H89.8447ZM100.025 15V4.43115H91.9761V15H92.9795V5.34668H99.0366V15H100.025ZM106.529 4.2627C103.585 4.2627 101.732 6.37207 101.732 9.71924C101.732 13.0664 103.585 15.1685 106.529 15.1685C109.481 15.1685 111.334 13.0664 111.334 9.71924C111.334 6.37207 109.474 4.2627 106.529 4.2627ZM106.529 5.19287C108.844 5.19287 110.309 6.94336 110.309 9.71924C110.309 12.4878 108.844 14.2383 106.529 14.2383C104.215 14.2383 102.757 12.4878 102.757 9.71924C102.757 6.94336 104.215 5.19287 106.529 5.19287ZM123.141 15H124.195L120.248 4.43115H119.251L115.296 15H116.358L117.53 11.7627H121.969L123.141 15ZM119.728 5.66895H119.771L121.668 10.8984H117.831L119.728 5.66895ZM127.894 15V5.33936H131.388V4.43115H123.404V5.33936H126.891V15H127.894ZM134.925 10.8325C134.925 7.771 133.951 5.77881 132.896 4.43115H132.054C132.882 5.45654 133.937 7.82227 133.937 10.8325C133.937 13.8428 132.882 16.2012 132.054 17.2266H132.896C133.951 15.8789 134.925 13.894 134.925 10.8325Z" fill="#D18200"/>
<path d="M178.58 190.135C180.502 190.135 181.639 188.436 181.639 185.764C181.639 183.109 180.496 181.41 178.58 181.41C176.67 181.41 175.516 183.115 175.516 185.77C175.516 188.441 176.658 190.135 178.58 190.135ZM178.58 189.432C177.15 189.432 176.324 188.008 176.324 185.764C176.324 183.561 177.168 182.119 178.58 182.119C179.998 182.119 180.836 183.549 180.836 185.77C180.836 188.008 180.01 189.432 178.58 189.432ZM183.057 191.617L183.795 188.793H182.969L182.406 191.617H183.057ZM188.307 190.135C190.035 190.135 191.277 188.945 191.277 187.275C191.277 185.646 190.094 184.451 188.482 184.451C187.627 184.451 186.859 184.809 186.449 185.383H186.426L186.742 182.26H190.768V181.545H186.08L185.6 186.227H186.367C186.76 185.553 187.498 185.148 188.354 185.148C189.578 185.148 190.475 186.057 190.475 187.293C190.475 188.535 189.578 189.426 188.318 189.426C187.229 189.426 186.367 188.746 186.256 187.797H185.471C185.576 189.162 186.76 190.135 188.307 190.135Z" fill="#2E2D36"/>
<path d="M222.842 190H223.615V181.545H222.83C222.578 181.697 220.785 182.963 220.551 183.109V183.965C220.797 183.812 222.631 182.523 222.818 182.406H222.842V190Z" fill="#2E2D36"/>
<path d="M258.842 190H259.615V181.545H258.83C258.578 181.697 256.785 182.963 256.551 183.109V183.965C256.797 183.812 258.631 182.523 258.818 182.406H258.842V190ZM261.924 191.617L262.662 188.793H261.836L261.273 191.617H261.924ZM267.174 190.135C268.902 190.135 270.145 188.945 270.145 187.275C270.145 185.646 268.961 184.451 267.35 184.451C266.494 184.451 265.727 184.809 265.316 185.383H265.293L265.609 182.26H269.635V181.545H264.947L264.467 186.227H265.234C265.627 185.553 266.365 185.148 267.221 185.148C268.445 185.148 269.342 186.057 269.342 187.293C269.342 188.535 268.445 189.426 267.186 189.426C266.096 189.426 265.234 188.746 265.123 187.797H264.338C264.443 189.162 265.627 190.135 267.174 190.135Z" fill="#2E2D36"/>
<path d="M300.674 183.912V183.918H301.447V183.912C301.459 182.881 302.273 182.113 303.357 182.113C304.395 182.113 305.215 182.84 305.215 183.766C305.215 184.504 304.91 185.008 303.703 186.279L300.715 189.438V190H306.229V189.285H301.834V189.262L304.189 186.801C305.596 185.342 306.012 184.645 306.012 183.719C306.012 182.424 304.857 181.41 303.381 181.41C301.834 181.41 300.686 182.471 300.674 183.912Z" fill="#2E2D36"/>
<path d="M335.674 183.912V183.918H336.447V183.912C336.459 182.881 337.273 182.113 338.357 182.113C339.395 182.113 340.215 182.84 340.215 183.766C340.215 184.504 339.91 185.008 338.703 186.279L335.715 189.438V190H341.229V189.285H336.834V189.262L339.189 186.801C340.596 185.342 341.012 184.645 341.012 183.719C341.012 182.424 339.857 181.41 338.381 181.41C336.834 181.41 335.686 182.471 335.674 183.912ZM342.998 191.617L343.736 188.793H342.91L342.348 191.617H342.998ZM348.248 190.135C349.977 190.135 351.219 188.945 351.219 187.275C351.219 185.646 350.035 184.451 348.424 184.451C347.568 184.451 346.801 184.809 346.391 185.383H346.367L346.684 182.26H350.709V181.545H346.021L345.541 186.227H346.309C346.701 185.553 347.439 185.148 348.295 185.148C349.52 185.148 350.416 186.057 350.416 187.293C350.416 188.535 349.52 189.426 348.26 189.426C347.17 189.426 346.309 188.746 346.197 187.797H345.412C345.518 189.162 346.701 190.135 348.248 190.135Z" fill="#2E2D36"/>
<path d="M382.338 185.975H383.357C384.717 185.975 385.549 186.631 385.549 187.709C385.549 188.711 384.658 189.432 383.434 189.432C382.215 189.432 381.365 188.752 381.301 187.809H380.527C380.58 189.162 381.734 190.135 383.439 190.135C385.086 190.135 386.363 189.115 386.363 187.686C386.363 186.49 385.531 185.688 384.236 185.611V185.588C385.314 185.395 386 184.633 386 183.572C386 182.318 384.881 181.41 383.393 181.41C381.869 181.41 380.803 182.324 380.703 183.684H381.477C381.564 182.746 382.309 182.113 383.357 182.113C384.5 182.113 385.191 182.758 385.191 183.672C385.191 184.615 384.43 185.295 383.322 185.295H382.338V185.975Z" fill="#2E2D36"/>
<rect x="144" y="40" width="169" height="14" rx="2.02053" fill="#F7F7F7"/>
<rect x="144" y="150" width="176" height="14" rx="2.02053" fill="#F7F7F7"/>
<rect x="144" y="96" width="76" height="13" rx="2.02053" fill="#F7F7F7"/>
<path d="M289.562 44.9268V44.9316H290.206V44.9268C290.216 44.0674 290.895 43.4277 291.798 43.4277C292.662 43.4277 293.346 44.0332 293.346 44.8047C293.346 45.4199 293.092 45.8398 292.086 46.8994L289.596 49.5312V50H294.19V49.4043H290.528V49.3848L292.491 47.334C293.663 46.1182 294.01 45.5371 294.01 44.7656C294.01 43.6865 293.048 42.8418 291.817 42.8418C290.528 42.8418 289.571 43.7256 289.562 44.9268ZM295.665 51.3477L296.28 48.9941H295.592L295.123 51.3477H295.665ZM298.849 50H299.493V42.9541H298.839C298.629 43.0811 297.135 44.1357 296.939 44.2578V44.9707C297.145 44.8438 298.673 43.7695 298.829 43.6719H298.849V50ZM303.604 50.1123C305.089 50.1123 306.114 49.2676 306.114 48.0859C306.114 47.2021 305.479 46.4746 304.542 46.2744V46.2598C305.333 46.0303 305.841 45.4297 305.841 44.6826C305.841 43.6182 304.908 42.8418 303.604 42.8418C302.306 42.8418 301.363 43.6182 301.363 44.6826C301.363 45.4395 301.871 46.04 302.667 46.2598V46.2744C301.729 46.4746 301.095 47.1973 301.095 48.0859C301.095 49.2627 302.125 50.1123 303.604 50.1123ZM303.604 49.5264C302.516 49.5264 301.773 48.8965 301.773 48.0469C301.773 47.2021 302.525 46.6016 303.604 46.6016C304.688 46.6016 305.436 47.2021 305.436 48.0469C305.436 48.8965 304.693 49.5264 303.604 49.5264ZM303.604 46.0059C302.682 46.0059 302.027 45.4785 302.027 44.7363C302.027 43.9795 302.667 43.4229 303.604 43.4229C304.547 43.4229 305.177 43.9795 305.177 44.7363C305.177 45.4785 304.522 46.0059 303.604 46.0059Z" fill="#2E2D36"/>
<path d="M202.983 106.112C204.585 106.112 205.532 104.696 205.532 102.47C205.532 100.258 204.58 98.8418 202.983 98.8418C201.392 98.8418 200.43 100.263 200.43 102.475C200.43 104.701 201.382 106.112 202.983 106.112ZM202.983 105.526C201.792 105.526 201.104 104.34 201.104 102.47C201.104 100.634 201.807 99.4326 202.983 99.4326C204.165 99.4326 204.863 100.624 204.863 102.475C204.863 104.34 204.175 105.526 202.983 105.526ZM206.714 107.348L207.329 104.994H206.641L206.172 107.348H206.714ZM210.938 106.112C212.617 106.112 213.608 104.687 213.608 102.328C213.608 101.439 213.452 100.727 213.135 100.175C212.705 99.3252 211.934 98.8418 210.981 98.8418C209.565 98.8418 208.535 99.8623 208.535 101.254C208.535 102.577 209.531 103.568 210.874 103.568C211.841 103.568 212.681 103.012 212.949 102.221C212.949 102.221 212.949 102.221 212.954 102.221C212.954 102.221 212.954 102.221 212.959 102.221C212.959 102.274 212.964 102.338 212.964 102.382C212.93 104.354 212.207 105.526 210.942 105.526C210.127 105.526 209.512 105.028 209.341 104.325H208.662C208.857 105.39 209.746 106.112 210.938 106.112ZM210.981 102.978C209.951 102.978 209.209 102.221 209.209 101.234C209.209 100.229 209.985 99.4424 210.986 99.4424C212.002 99.4424 212.778 100.248 212.778 101.269C212.778 102.216 211.992 102.978 210.981 102.978Z" fill="#2E2D36"/>
<path d="M297.562 155.927V155.932H298.206V155.927C298.216 155.067 298.895 154.428 299.798 154.428C300.662 154.428 301.346 155.033 301.346 155.805C301.346 156.42 301.092 156.84 300.086 157.899L297.596 160.531V161H302.19V160.404H298.528V160.385L300.491 158.334C301.663 157.118 302.01 156.537 302.01 155.766C302.01 154.687 301.048 153.842 299.817 153.842C298.528 153.842 297.571 154.726 297.562 155.927ZM303.665 162.348L304.28 159.994H303.592L303.123 162.348H303.665ZM307.034 157.646H307.884C309.017 157.646 309.71 158.192 309.71 159.091C309.71 159.926 308.968 160.526 307.947 160.526C306.932 160.526 306.224 159.96 306.17 159.174H305.525C305.569 160.302 306.531 161.112 307.952 161.112C309.324 161.112 310.389 160.263 310.389 159.071C310.389 158.075 309.695 157.406 308.616 157.343V157.323C309.515 157.162 310.086 156.527 310.086 155.644C310.086 154.599 309.153 153.842 307.913 153.842C306.644 153.842 305.755 154.604 305.672 155.736H306.316C306.39 154.955 307.01 154.428 307.884 154.428C308.836 154.428 309.412 154.965 309.412 155.727C309.412 156.513 308.777 157.079 307.854 157.079H307.034V157.646Z" fill="#2E2D36"/>
<rect x="144" y="3" width="230" height="14" rx="2.02053" fill="#D18200"/>
<path d="M351.562 6.92676V6.93164H352.206V6.92676C352.216 6.06738 352.895 5.42773 353.798 5.42773C354.662 5.42773 355.346 6.0332 355.346 6.80469C355.346 7.41992 355.092 7.83984 354.086 8.89941L351.596 11.5312V12H356.19V11.4043H352.528V11.3848L354.491 9.33398C355.663 8.11816 356.01 7.53711 356.01 6.76562C356.01 5.68652 355.048 4.8418 353.817 4.8418C352.528 4.8418 351.571 5.72559 351.562 6.92676ZM357.665 13.3477L358.28 10.9941H357.592L357.123 13.3477H357.665ZM362.04 12.1123C363.524 12.1123 364.55 11.2676 364.55 10.0859C364.55 9.20215 363.915 8.47461 362.978 8.27441V8.25977C363.769 8.03027 364.276 7.42969 364.276 6.68262C364.276 5.61816 363.344 4.8418 362.04 4.8418C360.741 4.8418 359.799 5.61816 359.799 6.68262C359.799 7.43945 360.307 8.04004 361.103 8.25977V8.27441C360.165 8.47461 359.53 9.19727 359.53 10.0859C359.53 11.2627 360.561 12.1123 362.04 12.1123ZM362.04 11.5264C360.951 11.5264 360.209 10.8965 360.209 10.0469C360.209 9.20215 360.961 8.60156 362.04 8.60156C363.124 8.60156 363.871 9.20215 363.871 10.0469C363.871 10.8965 363.129 11.5264 362.04 11.5264ZM362.04 8.00586C361.117 8.00586 360.463 7.47852 360.463 6.73633C360.463 5.97949 361.103 5.42285 362.04 5.42285C362.982 5.42285 363.612 5.97949 363.612 6.73633C363.612 7.47852 362.958 8.00586 362.04 8.00586ZM368.944 12H369.594V10.4082H370.644V9.81738H369.594V4.94434H368.617C367.06 7.12695 366.137 8.50879 365.37 9.79785V10.4082H368.944V12ZM366.044 9.79785C366.747 8.65527 367.636 7.32715 368.935 5.53027H368.944V9.81738H366.044V9.79785Z" fill="white"/>
<path d="M4.76807 54.4229V44.7622H8.26172V43.854H0.27832V44.7622H3.76465V54.4229H4.76807ZM13.3521 54.4229C15.5859 54.4229 16.9263 53.3242 16.9263 51.5225C16.9263 50.0576 15.9082 49.0688 14.4434 48.8931V48.8418C15.5713 48.6367 16.377 47.6333 16.377 46.4614C16.377 44.9014 15.1465 43.854 13.3301 43.854H9.52881V54.4229H13.3521ZM10.5249 44.7402H13.1177C14.5239 44.7402 15.3662 45.4214 15.3662 46.5713C15.3662 47.8164 14.4287 48.5488 12.8247 48.5488H10.5249V44.7402ZM10.5249 53.5366V49.4131H13.0811C14.9048 49.4131 15.9009 50.1528 15.9009 51.4712C15.9009 52.7822 14.9414 53.5366 13.2129 53.5366H10.5249ZM28.5425 54.4229V43.854H27.3853L23.4741 53.1045H23.4302L19.5117 43.854H18.3618V54.4229H19.2993V45.751H19.3433L23.0127 54.3716H23.8843L27.561 45.751H27.605V54.4229H28.5425ZM30.9302 50.2554C30.9302 52.7676 31.5967 54.9136 32.959 56.6494H33.8013C32.6953 55.3018 31.9189 52.6284 31.9189 50.2554C31.9189 47.8823 32.6953 45.2017 33.8013 43.854H32.959C31.5967 45.5898 30.9302 47.7432 30.9302 50.2554ZM34.5923 51.5518C34.7021 53.3682 36.2549 54.5913 38.4668 54.5913C40.8032 54.5913 42.2974 53.3755 42.2974 51.5225C42.2974 50.0503 41.4038 49.2373 39.2798 48.7026L38.1372 48.4097C36.5845 48.0142 35.9253 47.4795 35.9253 46.5713C35.9253 45.4067 37.0093 44.5938 38.4741 44.5938C39.9756 44.5938 41.0303 45.3848 41.1255 46.5786H42.1289C42.0703 44.9014 40.5615 43.6855 38.5034 43.6855C36.4233 43.6855 34.8853 44.9014 34.8853 46.6079C34.8853 47.9995 35.7568 48.8271 37.7124 49.3252L39.0234 49.6621C40.5908 50.0576 41.272 50.6436 41.272 51.6323C41.272 52.8188 40.1367 53.6831 38.5547 53.6831C36.8994 53.6831 35.7056 52.8188 35.5957 51.5518H34.5923ZM45.9595 50.2554C45.9595 47.1938 44.9854 45.2017 43.9307 43.854H43.0884C43.916 44.8794 44.9707 47.2451 44.9707 50.2554C44.9707 53.2656 43.916 55.624 43.0884 56.6494H43.9307C44.9854 55.3018 45.9595 53.3169 45.9595 50.2554ZM52.9614 50.6069V49.6987H48.1567V50.6069H52.9614ZM55.3198 54.4229H56.3818L61.2231 44.7915V43.854H54.3384V44.7476H60.2197V44.7769L55.3198 54.4229ZM66.1743 54.5913C68.291 54.5913 69.8438 53.0679 69.8438 50.9951C69.8438 48.9956 68.3423 47.5015 66.3354 47.5015C64.9072 47.5015 63.6548 48.3218 63.2227 49.5083H63.2007C63.2007 46.3735 64.3066 44.5718 66.2402 44.5718C67.4194 44.5718 68.3789 45.2896 68.6426 46.3662H69.6533C69.353 44.7476 68.0054 43.6855 66.2476 43.6855C63.7427 43.6855 62.2339 45.8169 62.2339 49.3618C62.2339 50.6875 62.4683 51.7642 62.9443 52.5918C63.5962 53.8735 64.7534 54.5913 66.1743 54.5913ZM66.167 53.6978C64.6509 53.6978 63.4863 52.4893 63.4863 50.9512C63.4863 49.5156 64.6655 48.3877 66.1743 48.3877C67.7051 48.3877 68.8257 49.5083 68.8257 51.0244C68.8257 52.5186 67.6538 53.6978 66.167 53.6978ZM76.311 54.4229H77.2852V52.0352H78.8599V51.1489H77.2852V43.8394H75.8203C73.4839 47.1133 72.0996 49.186 70.9497 51.1196V52.0352H76.311V54.4229ZM71.9604 51.1196C73.0151 49.4058 74.3481 47.4136 76.2964 44.7183H76.311V51.1489H71.9604V51.1196ZM83.8989 54.5913C86.0156 54.5913 87.5684 53.0679 87.5684 50.9951C87.5684 48.9956 86.0669 47.5015 84.0601 47.5015C82.6318 47.5015 81.3794 48.3218 80.9473 49.5083H80.9253C80.9253 46.3735 82.0312 44.5718 83.9648 44.5718C85.144 44.5718 86.1035 45.2896 86.3672 46.3662H87.3779C87.0776 44.7476 85.73 43.6855 83.9722 43.6855C81.4673 43.6855 79.9585 45.8169 79.9585 49.3618C79.9585 50.6875 80.1929 51.7642 80.6689 52.5918C81.3208 53.8735 82.478 54.5913 83.8989 54.5913ZM83.8916 53.6978C82.3755 53.6978 81.2109 52.4893 81.2109 50.9512C81.2109 49.5156 82.3901 48.3877 83.8989 48.3877C85.4297 48.3877 86.5503 49.5083 86.5503 51.0244C86.5503 52.5186 85.3784 53.6978 83.8916 53.6978ZM93.728 50.6069V49.6987H88.9233V50.6069H93.728ZM102.173 54.4229H103.228L99.2798 43.854H98.2837L94.3286 54.4229H95.3906L96.5625 51.1855H101.001L102.173 54.4229ZM98.7598 45.0918H98.8037L100.701 50.3213H96.8628L98.7598 45.0918ZM1.39893 70.2554C1.39893 72.7676 2.06543 74.9136 3.42773 76.6494H4.27002C3.16406 75.3018 2.3877 72.6284 2.3877 70.2554C2.3877 67.8823 3.16406 65.2017 4.27002 63.854H3.42773C2.06543 65.5898 1.39893 67.7432 1.39893 70.2554ZM6.56982 74.4229V70.6509L7.87354 69.2373L12.0703 74.4229H13.3521L8.57666 68.5269L12.9199 63.854H11.6528L6.62842 69.3325H6.56982V63.854H5.57373V74.4229H6.56982ZM16.9336 74.5474C19.0063 74.5474 20.4053 73.0312 20.4053 70.6143C20.4053 68.1899 19.0063 66.6812 16.9336 66.6812C14.8682 66.6812 13.4619 68.1899 13.4619 70.6143C13.4619 73.0312 14.8608 74.5474 16.9336 74.5474ZM16.9336 73.6904C15.4395 73.6904 14.4507 72.5479 14.4507 70.6143C14.4507 68.6807 15.4395 67.5381 16.9336 67.5381C18.4277 67.5381 19.4238 68.6807 19.4238 70.6143C19.4238 72.5479 18.4277 73.6904 16.9336 73.6904ZM21.7603 74.4229H22.7271V63.854H21.7603V74.4229ZM24.5288 74.4229H25.4956V63.854H24.5288V74.4229ZM27.2314 74.4229H28.1982V69.7427C28.1982 68.4463 29.0039 67.5454 30.1245 67.5454C31.1646 67.5454 31.8677 68.2559 31.8677 69.3472V74.4229H32.8418V69.6255C32.8418 68.4097 33.6182 67.5454 34.7461 67.5454C35.8521 67.5454 36.5112 68.2559 36.5112 69.4351V74.4229H37.478V69.2153C37.478 67.6772 36.5039 66.6812 35.0171 66.6812C33.8672 66.6812 32.9736 67.3477 32.6147 68.2852H32.5928C32.3071 67.3257 31.5015 66.6812 30.3882 66.6812C29.2822 66.6812 28.4985 67.3184 28.1689 68.2119H28.147V66.8057H27.2314V74.4229ZM42.2021 74.5474C44.2749 74.5474 45.6738 73.0312 45.6738 70.6143C45.6738 68.1899 44.2749 66.6812 42.2021 66.6812C40.1367 66.6812 38.7305 68.1899 38.7305 70.6143C38.7305 73.0312 40.1294 74.5474 42.2021 74.5474ZM42.2021 73.6904C40.708 73.6904 39.7192 72.5479 39.7192 70.6143C39.7192 68.6807 40.708 67.5381 42.2021 67.5381C43.6963 67.5381 44.6924 68.6807 44.6924 70.6143C44.6924 72.5479 43.6963 73.6904 42.2021 73.6904ZM46.9629 74.4229H47.9297V69.6768C47.9297 68.4463 48.6182 67.604 49.7021 67.604C50.0317 67.604 50.3027 67.6553 50.4272 67.7139V66.7617C50.3101 66.7324 50.083 66.6812 49.8267 66.6812C48.8892 66.6812 48.1787 67.2305 47.9004 68.1606H47.8784V66.8057H46.9629V74.4229ZM54.0454 73.6392C52.6099 73.6392 51.6504 72.438 51.6504 70.5996C51.6504 68.7466 52.6099 67.5381 54.0454 67.5381C55.5103 67.5381 56.499 68.7686 56.499 70.5923C56.499 72.416 55.5103 73.6392 54.0454 73.6392ZM54.1406 77.2427C56.1768 77.2427 57.4731 76.0708 57.4731 74.2983V66.8057H56.5503V68.417H56.5283C56.0815 67.377 55.1074 66.6812 53.8916 66.6812C51.9434 66.6812 50.6543 68.2266 50.6543 70.5923C50.6543 72.9507 51.9434 74.4961 53.8696 74.4961C55.0854 74.4961 56.0669 73.7856 56.4771 72.8042H56.499V74.335C56.499 75.5801 55.6128 76.4077 54.1846 76.4077C53.0786 76.4077 52.2656 75.873 52.0166 75.126H51.0132C51.2256 76.3271 52.478 77.2427 54.1406 77.2427ZM62.1606 67.5308C63.5376 67.5308 64.4531 68.5781 64.4751 70.0796H59.7729C59.8535 68.5781 60.7983 67.5308 62.1606 67.5308ZM64.4165 72.2622C64.2041 73.0972 63.4058 73.6978 62.2559 73.6978C60.7397 73.6978 59.7656 72.6284 59.7656 70.9072V70.8486H65.4712V70.4385C65.4712 68.168 64.1968 66.6812 62.1753 66.6812C60.1099 66.6812 58.7695 68.2705 58.7695 70.6362C58.7695 73.0532 60.0952 74.5474 62.2339 74.5474C63.9111 74.5474 65.1489 73.5806 65.376 72.2622H64.4165ZM66.7676 74.4229H67.7344V69.9111C67.7344 68.4976 68.6206 67.5454 69.939 67.5454C71.2134 67.5454 71.9458 68.3071 71.9458 69.6401V74.4229H72.9126V69.4863C72.9126 67.7578 71.8872 66.6812 70.2173 66.6812C68.9868 66.6812 68.0933 67.2891 67.7051 68.2119H67.6831V66.8057H66.7676V74.4229ZM87.9565 74.4229V63.854H86.7993L82.8882 73.1045H82.8442L78.9258 63.854H77.7759V74.4229H78.7134V65.751H78.7573L82.4268 74.3716H83.2983L86.9751 65.751H87.019V74.4229H87.9565ZM92.8711 74.5474C94.9438 74.5474 96.3428 73.0312 96.3428 70.6143C96.3428 68.1899 94.9438 66.6812 92.8711 66.6812C90.8057 66.6812 89.3994 68.1899 89.3994 70.6143C89.3994 73.0312 90.7983 74.5474 92.8711 74.5474ZM92.8711 73.6904C91.377 73.6904 90.3882 72.5479 90.3882 70.6143C90.3882 68.6807 91.377 67.5381 92.8711 67.5381C94.3652 67.5381 95.3613 68.6807 95.3613 70.6143C95.3613 72.5479 94.3652 73.6904 92.8711 73.6904ZM98.0493 64.9014V66.8057H96.9141V67.6113H98.0493V72.5479C98.0493 73.9248 98.562 74.4668 99.8364 74.4668C100.042 74.4668 100.452 74.4448 100.554 74.4229V73.5952C100.496 73.6099 100.129 73.6245 100.027 73.6245C99.3237 73.6245 99.0161 73.2876 99.0161 72.5039V67.6113H100.518V66.8057H99.0161V64.9014H98.0493ZM104.722 74.5474C106.794 74.5474 108.193 73.0312 108.193 70.6143C108.193 68.1899 106.794 66.6812 104.722 66.6812C102.656 66.6812 101.25 68.1899 101.25 70.6143C101.25 73.0312 102.649 74.5474 104.722 74.5474ZM104.722 73.6904C103.228 73.6904 102.239 72.5479 102.239 70.6143C102.239 68.6807 103.228 67.5381 104.722 67.5381C106.216 67.5381 107.212 68.6807 107.212 70.6143C107.212 72.5479 106.216 73.6904 104.722 73.6904ZM109.482 74.4229H110.449V69.6768C110.449 68.4463 111.138 67.604 112.222 67.604C112.551 67.604 112.822 67.6553 112.947 67.7139V66.7617C112.83 66.7324 112.603 66.6812 112.346 66.6812C111.409 66.6812 110.698 67.2305 110.42 68.1606H110.398V66.8057H109.482V74.4229ZM116.345 70.2554C116.345 67.1938 115.371 65.2017 114.316 63.854H113.474C114.302 64.8794 115.356 67.2451 115.356 70.2554C115.356 73.2656 114.302 75.624 113.474 76.6494H114.316C115.371 75.3018 116.345 73.3169 116.345 70.2554Z" fill="#2E2D36"/>
<path d="M1.98486 109.423V104.625H6.8335V103.732H1.98486V99.7622H7.2583V98.854H0.98877V109.423H1.98486ZM18.9478 109.423V98.854H17.7905L13.8794 108.104H13.8354L9.91699 98.854H8.76709V109.423H9.70459V100.751H9.74854L13.418 109.372H14.2896L17.9663 100.751H18.0103V109.423H18.9478ZM21.9214 109.423V98.854H20.9253V109.423H21.9214ZM30.4175 109.591C32.644 109.591 34.1821 108.324 34.1821 106.552C34.1821 105.226 33.23 104.135 31.8237 103.834V103.812C33.0103 103.468 33.772 102.567 33.772 101.447C33.772 99.8501 32.373 98.6855 30.4175 98.6855C28.4692 98.6855 27.0557 99.8501 27.0557 101.447C27.0557 102.582 27.8174 103.483 29.0112 103.812V103.834C27.605 104.135 26.6528 105.219 26.6528 106.552C26.6528 108.317 28.1982 109.591 30.4175 109.591ZM30.4175 108.712C28.7842 108.712 27.6709 107.768 27.6709 106.493C27.6709 105.226 28.7988 104.325 30.4175 104.325C32.0435 104.325 33.1641 105.226 33.1641 106.493C33.1641 107.768 32.0508 108.712 30.4175 108.712ZM30.4175 103.432C29.0332 103.432 28.0518 102.641 28.0518 101.527C28.0518 100.392 29.0112 99.5571 30.4175 99.5571C31.8311 99.5571 32.7759 100.392 32.7759 101.527C32.7759 102.641 31.7944 103.432 30.4175 103.432ZM39.2944 109.591C41.4551 109.591 43.0078 108.104 43.0078 106.017C43.0078 103.981 41.5283 102.487 39.5142 102.487C38.4448 102.487 37.4854 102.934 36.9727 103.651H36.9434L37.3389 99.7476H42.3706V98.854H36.5112L35.9106 104.706H36.8701C37.3608 103.864 38.2837 103.358 39.353 103.358C40.8838 103.358 42.0044 104.494 42.0044 106.039C42.0044 107.592 40.8838 108.705 39.3091 108.705C37.9468 108.705 36.8701 107.855 36.731 106.669H35.7495C35.8813 108.375 37.3608 109.591 39.2944 109.591ZM44.3042 101.813V101.82H45.271V101.813C45.2856 100.524 46.3037 99.5645 47.6587 99.5645C48.9551 99.5645 49.9805 100.473 49.9805 101.63C49.9805 102.553 49.5996 103.183 48.0908 104.772L44.3555 108.72V109.423H51.2476V108.529H45.7544V108.5L48.6987 105.424C50.4565 103.6 50.9766 102.729 50.9766 101.571C50.9766 99.9526 49.5337 98.6855 47.688 98.6855C45.7544 98.6855 44.3188 100.011 44.3042 101.813ZM56.3745 109.591C58.7769 109.591 60.1978 107.467 60.1978 104.127C60.1978 100.81 58.7695 98.6855 56.3745 98.6855C53.9868 98.6855 52.5439 100.817 52.5439 104.135C52.5439 107.475 53.9722 109.591 56.3745 109.591ZM56.3745 108.712C54.5874 108.712 53.5547 106.933 53.5547 104.127C53.5547 101.374 54.6094 99.5718 56.3745 99.5718C58.147 99.5718 59.1943 101.359 59.1943 104.135C59.1943 106.933 58.1616 108.712 56.3745 108.712ZM65.3247 109.591C67.7271 109.591 69.1479 107.467 69.1479 104.127C69.1479 100.81 67.7197 98.6855 65.3247 98.6855C62.937 98.6855 61.4941 100.817 61.4941 104.135C61.4941 107.475 62.9224 109.591 65.3247 109.591ZM65.3247 108.712C63.5376 108.712 62.5049 106.933 62.5049 104.127C62.5049 101.374 63.5596 99.5718 65.3247 99.5718C67.0972 99.5718 68.1445 101.359 68.1445 104.135C68.1445 106.933 67.1118 108.712 65.3247 108.712ZM73.2495 109.423H74.2163V98.854H73.2349C72.9199 99.0444 70.6787 100.626 70.3857 100.81V101.879C70.6934 101.688 72.9858 100.077 73.2202 99.9307H73.2495V109.423ZM1.39893 125.255C1.39893 127.768 2.06543 129.914 3.42773 131.649H4.27002C3.16406 130.302 2.3877 127.628 2.3877 125.255C2.3877 122.882 3.16406 120.202 4.27002 118.854H3.42773C2.06543 120.59 1.39893 122.743 1.39893 125.255ZM6.56982 119.748H9.18457C10.7227 119.748 11.6528 120.575 11.6528 121.974C11.6528 123.388 10.7593 124.208 9.22119 124.208H6.56982V119.748ZM6.56982 125.094H9.22119C9.27246 125.094 9.3457 125.094 9.38232 125.094L11.814 129.423H12.9858L10.4224 124.933C11.8359 124.567 12.6855 123.439 12.6855 121.945C12.6855 120.062 11.3672 118.854 9.30176 118.854H5.57373V129.423H6.56982V125.094ZM17.1094 129.547C19.1821 129.547 20.5811 128.031 20.5811 125.614C20.5811 123.19 19.1821 121.681 17.1094 121.681C15.0439 121.681 13.6377 123.19 13.6377 125.614C13.6377 128.031 15.0366 129.547 17.1094 129.547ZM17.1094 128.69C15.6152 128.69 14.6265 127.548 14.6265 125.614C14.6265 123.681 15.6152 122.538 17.1094 122.538C18.6035 122.538 19.5996 123.681 19.5996 125.614C19.5996 127.548 18.6035 128.69 17.1094 128.69ZM21.2988 129.423H26.9604V128.617H22.4121V128.595L26.9458 122.538V121.806H21.2988V122.611H25.8325V122.633L21.2988 128.705V129.423ZM34.4824 121.806H33.5156V126.325C33.5156 127.753 32.6221 128.683 31.2964 128.683C30.022 128.683 29.3042 127.936 29.3042 126.588V121.806H28.3301V126.757C28.3301 128.471 29.3628 129.547 31.0181 129.547C32.2266 129.547 33.1421 128.947 33.5449 128.009H33.5669V129.423H34.4824V121.806ZM36.1523 129.423H37.1191V124.743C37.1191 123.446 37.9248 122.545 39.0454 122.545C40.0854 122.545 40.7886 123.256 40.7886 124.347V129.423H41.7627V124.625C41.7627 123.41 42.5391 122.545 43.667 122.545C44.7729 122.545 45.4321 123.256 45.4321 124.435V129.423H46.3989V124.215C46.3989 122.677 45.4248 121.681 43.938 121.681C42.7881 121.681 41.8945 122.348 41.5356 123.285H41.5137C41.228 122.326 40.4224 121.681 39.3091 121.681C38.2031 121.681 37.4194 122.318 37.0898 123.212H37.0679V121.806H36.1523V129.423ZM52.2583 119.748H54.873C56.4111 119.748 57.3413 120.575 57.3413 121.974C57.3413 123.388 56.4478 124.208 54.9097 124.208H52.2583V119.748ZM52.2583 125.094H54.9097C54.9609 125.094 55.0342 125.094 55.0708 125.094L57.5024 129.423H58.6743L56.1108 124.933C57.5244 124.567 58.374 123.439 58.374 121.945C58.374 120.062 57.0557 118.854 54.9902 118.854H51.2622V129.423H52.2583V125.094ZM62.7979 129.547C64.8706 129.547 66.2695 128.031 66.2695 125.614C66.2695 123.19 64.8706 121.681 62.7979 121.681C60.7324 121.681 59.3262 123.19 59.3262 125.614C59.3262 128.031 60.7251 129.547 62.7979 129.547ZM62.7979 128.69C61.3037 128.69 60.3149 127.548 60.3149 125.614C60.3149 123.681 61.3037 122.538 62.7979 122.538C64.292 122.538 65.2881 123.681 65.2881 125.614C65.2881 127.548 64.292 128.69 62.7979 128.69ZM71.2207 129.547C73.1396 129.547 74.4434 127.987 74.4434 125.614C74.4434 123.241 73.1396 121.681 71.228 121.681C70.0342 121.681 69.0527 122.348 68.6206 123.395H68.5986V118.854H67.6245V129.423H68.5547V127.812H68.5767C69.0308 128.881 70.0049 129.547 71.2207 129.547ZM71.0376 122.538C72.5024 122.538 73.4473 123.754 73.4473 125.614C73.4473 127.482 72.5024 128.69 71.0376 128.69C69.6021 128.69 68.5913 127.445 68.5913 125.614C68.5913 123.791 69.6094 122.538 71.0376 122.538ZM78.8379 129.547C80.9106 129.547 82.3096 128.031 82.3096 125.614C82.3096 123.19 80.9106 121.681 78.8379 121.681C76.7725 121.681 75.3662 123.19 75.3662 125.614C75.3662 128.031 76.7651 129.547 78.8379 129.547ZM78.8379 128.69C77.3438 128.69 76.355 127.548 76.355 125.614C76.355 123.681 77.3438 122.538 78.8379 122.538C80.332 122.538 81.3281 123.681 81.3281 125.614C81.3281 127.548 80.332 128.69 78.8379 128.69ZM84.0161 119.901V121.806H82.8809V122.611H84.0161V127.548C84.0161 128.925 84.5288 129.467 85.8032 129.467C86.0083 129.467 86.4185 129.445 86.521 129.423V128.595C86.4624 128.61 86.0962 128.625 85.9937 128.625C85.2905 128.625 84.9829 128.288 84.9829 127.504V122.611H86.4844V121.806H84.9829V119.901H84.0161ZM87.9272 129.423H88.894V121.806H87.9272V129.423ZM88.4106 120.268C88.7695 120.268 89.0625 119.982 89.0625 119.623C89.0625 119.271 88.7695 118.986 88.4106 118.986C88.0591 118.986 87.7661 119.271 87.7661 119.623C87.7661 119.982 88.0591 120.268 88.4106 120.268ZM96.8262 124.215C96.6357 122.853 95.4858 121.681 93.6914 121.681C91.6187 121.681 90.249 123.212 90.249 125.614C90.249 128.053 91.6187 129.547 93.6987 129.547C95.3833 129.547 96.6211 128.522 96.8335 127.064H95.874C95.6543 128.053 94.856 128.69 93.7061 128.69C92.2192 128.69 91.2378 127.526 91.2378 125.614C91.2378 123.732 92.2119 122.538 93.6987 122.538C94.8999 122.538 95.6689 123.278 95.874 124.215H96.8262ZM97.8882 123.842C97.8882 124.853 98.5474 125.504 99.9243 125.849L101.162 126.156C102.18 126.405 102.561 126.757 102.561 127.416C102.561 128.214 101.807 128.749 100.664 128.749C99.5215 128.749 98.7744 128.192 98.6353 127.292H97.6685C97.793 128.632 98.9722 129.547 100.605 129.547C102.327 129.547 103.535 128.632 103.535 127.343C103.535 126.251 102.964 125.695 101.44 125.314L100.312 125.043C99.2944 124.794 98.8477 124.413 98.8477 123.791C98.8477 123.029 99.5581 122.479 100.598 122.479C101.653 122.479 102.349 123.036 102.466 123.937H103.396C103.301 122.597 102.188 121.681 100.627 121.681C99.0161 121.681 97.8882 122.582 97.8882 123.842ZM107.19 125.255C107.19 122.194 106.216 120.202 105.161 118.854H104.319C105.146 119.879 106.201 122.245 106.201 125.255C106.201 128.266 105.146 130.624 104.319 131.649H105.161C106.216 130.302 107.19 128.317 107.19 125.255Z" fill="#2E2D36"/>
<path d="M1.98486 164.423V153.854H0.98877V164.423H1.98486ZM10.2539 163.515H4.9585V153.854H3.9624V164.423H10.2539V163.515ZM21.8481 164.423V153.854H20.6909L16.7798 163.104H16.7358L12.8174 153.854H11.6675V164.423H12.605V155.751H12.6489L16.3184 164.372H17.1899L20.8667 155.751H20.9106V164.423H21.8481ZM30.3442 164.591C32.5708 164.591 34.1089 163.324 34.1089 161.552C34.1089 160.226 33.1567 159.135 31.7505 158.834V158.812C32.937 158.468 33.6987 157.567 33.6987 156.447C33.6987 154.85 32.2998 153.686 30.3442 153.686C28.396 153.686 26.9824 154.85 26.9824 156.447C26.9824 157.582 27.7441 158.483 28.938 158.812V158.834C27.5317 159.135 26.5796 160.219 26.5796 161.552C26.5796 163.317 28.125 164.591 30.3442 164.591ZM30.3442 163.712C28.7109 163.712 27.5977 162.768 27.5977 161.493C27.5977 160.226 28.7256 159.325 30.3442 159.325C31.9702 159.325 33.0908 160.226 33.0908 161.493C33.0908 162.768 31.9775 163.712 30.3442 163.712ZM30.3442 158.432C28.96 158.432 27.9785 157.641 27.9785 156.527C27.9785 155.392 28.938 154.557 30.3442 154.557C31.7578 154.557 32.7026 155.392 32.7026 156.527C32.7026 157.641 31.7212 158.432 30.3442 158.432ZM39.2212 164.591C41.3818 164.591 42.9346 163.104 42.9346 161.017C42.9346 158.981 41.4551 157.487 39.4409 157.487C38.3716 157.487 37.4121 157.934 36.8994 158.651H36.8701L37.2656 154.748H42.2974V153.854H36.438L35.8374 159.706H36.7969C37.2876 158.864 38.2104 158.358 39.2798 158.358C40.8105 158.358 41.9312 159.494 41.9312 161.039C41.9312 162.592 40.8105 163.705 39.2358 163.705C37.8735 163.705 36.7969 162.855 36.6577 161.669H35.6763C35.8081 163.375 37.2876 164.591 39.2212 164.591ZM44.231 156.813V156.82H45.1978V156.813C45.2124 155.524 46.2305 154.564 47.5854 154.564C48.8818 154.564 49.9072 155.473 49.9072 156.63C49.9072 157.553 49.5264 158.183 48.0176 159.772L44.2822 163.72V164.423H51.1743V163.529H45.6812V163.5L48.6255 160.424C50.3833 158.6 50.9033 157.729 50.9033 156.571C50.9033 154.953 49.4604 153.686 47.6147 153.686C45.6812 153.686 44.2456 155.011 44.231 156.813ZM54.7485 159.391H56.0229C57.7222 159.391 58.7622 160.211 58.7622 161.559C58.7622 162.812 57.6489 163.712 56.1182 163.712C54.5947 163.712 53.5327 162.863 53.4521 161.684H52.4854C52.5513 163.375 53.9941 164.591 56.1255 164.591C58.1836 164.591 59.7803 163.317 59.7803 161.53C59.7803 160.036 58.7402 159.032 57.1216 158.937V158.908C58.4692 158.666 59.3262 157.714 59.3262 156.388C59.3262 154.821 57.9272 153.686 56.0669 153.686C54.1626 153.686 52.8296 154.828 52.7051 156.527H53.6719C53.7817 155.355 54.7119 154.564 56.0229 154.564C57.4512 154.564 58.3154 155.37 58.3154 156.513C58.3154 157.692 57.3633 158.542 55.979 158.542H54.7485V159.391ZM64.9731 160.255C64.9731 162.768 65.6396 164.914 67.002 166.649H67.8442C66.7383 165.302 65.9619 162.628 65.9619 160.255C65.9619 157.882 66.7383 155.202 67.8442 153.854H67.002C65.6396 155.59 64.9731 157.743 64.9731 160.255ZM72.9272 164.423V154.762H76.4209V153.854H68.4375V154.762H71.9238V164.423H72.9272ZM81.3574 164.591C82.0898 164.591 82.7417 164.459 83.3276 164.21L84.3896 165.661H85.5176L84.1406 163.771C85.4297 162.855 86.1621 161.237 86.1621 159.142C86.1621 155.795 84.3018 153.686 81.3574 153.686C78.4131 153.686 76.5601 155.795 76.5601 159.142C76.5601 162.489 78.4058 164.591 81.3574 164.591ZM81.3574 163.661C79.0503 163.661 77.5854 161.911 77.5854 159.142C77.5854 156.366 79.043 154.616 81.3574 154.616C83.6719 154.616 85.1294 156.366 85.1294 159.142C85.1294 160.863 84.5654 162.211 83.5547 162.965L82.5073 161.53H81.3794L82.749 163.412C82.3315 163.573 81.8628 163.661 81.3574 163.661ZM92.3364 160.607V159.699H87.5317V160.607H92.3364ZM94.1235 153.854V164.423H97.5513C100.723 164.423 102.561 162.482 102.561 159.135C102.561 155.795 100.715 153.854 97.5513 153.854H94.1235ZM95.127 154.762H97.4927C100.093 154.762 101.543 156.33 101.543 159.142C101.543 161.947 100.093 163.515 97.4927 163.515H95.127V154.762ZM104.033 164.423H105V159.677C105 158.446 105.688 157.604 106.772 157.604C107.102 157.604 107.373 157.655 107.498 157.714V156.762C107.38 156.732 107.153 156.681 106.897 156.681C105.959 156.681 105.249 157.23 104.971 158.161H104.949V156.806H104.033V164.423ZM108.611 164.423H109.578V156.806H108.611V164.423ZM109.094 155.268C109.453 155.268 109.746 154.982 109.746 154.623C109.746 154.271 109.453 153.986 109.094 153.986C108.743 153.986 108.45 154.271 108.45 154.623C108.45 154.982 108.743 155.268 109.094 155.268ZM117.29 156.806H116.279L113.958 163.405H113.936L111.621 156.806H110.596L113.43 164.423H114.463L117.29 156.806ZM121.091 157.531C122.468 157.531 123.384 158.578 123.406 160.08H118.704C118.784 158.578 119.729 157.531 121.091 157.531ZM123.347 162.262C123.135 163.097 122.336 163.698 121.187 163.698C119.67 163.698 118.696 162.628 118.696 160.907V160.849H124.402V160.438C124.402 158.168 123.127 156.681 121.106 156.681C119.041 156.681 117.7 158.271 117.7 160.636C117.7 163.053 119.026 164.547 121.165 164.547C122.842 164.547 124.08 163.581 124.307 162.262H123.347ZM128.049 160.255C128.049 157.194 127.075 155.202 126.021 153.854H125.178C126.006 154.879 127.061 157.245 127.061 160.255C127.061 163.266 126.006 165.624 125.178 166.649H126.021C127.075 165.302 128.049 163.317 128.049 160.255Z" fill="#2E2D36"/>
</svg>
